<?xml version="1.0" encoding="utf-8"?>
<!-- Generator: Adobe Illustrator 28.1.0, SVG Export Plug-In . SVG Version: 6.00 Build 0)  -->
<svg version="1.1" xmlns="http://www.w3.org/2000/svg" xmlns:xlink="http://www.w3.org/1999/xlink" x="0px" y="0px"
	 viewBox="0 0 612 792" style="enable-background:new 0 0 612 792;" xml:space="preserve">
<style type="text/css">
	.st0{display:none;}
	.st1{display:inline;}
	.st2{fill:#FFFFFF;}
	.st3{fill:none;stroke:#221F20;stroke-miterlimit:10;}
</style>
<g id="Layer_1" class="st0">
	<g class="st1">
		<g>
			<path class="st2" d="M223.92,312c54.72,0,109.44,0,164.16,0c0,55.68,0,111.36,0,167.04c-54.72,0-109.44,0-164.16,0
				C223.92,423.36,223.92,367.68,223.92,312z M379.32,320.54c-48.76,0-97.37,0-145.97,0c0,38.19,0,76.28,0,114.65
				c6.72-8.6,13.27-16.99,19.88-25.44c0.2,0.22,0.34,0.35,0.46,0.5c2.28,2.89,4.55,5.78,6.84,8.66c1.16,1.46,1.25,2.32,0.23,3.91
				c-1.2,1.89-2.45,3.75-3.65,5.63c-5.99,9.36-11.97,18.72-17.94,28.09c-0.2,0.31-0.3,0.68-0.45,1.02c0.12,0.07,0.25,0.14,0.37,0.21
				c15.11-19.4,30.22-38.8,45.39-58.27c0.46,0.52,0.84,0.93,1.18,1.37c3.27,4.19,6.53,8.4,9.8,12.59
				c8.32,10.65,16.64,21.3,24.96,31.95c1.96,2.5,1.97,3.53,0.29,6.25c-1.59,2.58-3.1,5.22-4.63,7.85c-0.12,0.21-0.16,0.48-0.23,0.72
				c0.1,0.06,0.2,0.12,0.29,0.18c3.74-4.79,7.48-9.58,11.21-14.37c3.75-4.81,7.51-9.63,11.32-14.53c0.68,0.83,1.28,1.52,1.84,2.24
				c4.43,5.68,8.84,11.36,13.27,17.03c2.78,3.56,5.53,7.15,8.35,10.68c1.69,2.12,2.92,2.43,5.48,1.62
				c7.55-2.39,11.7-8.05,11.7-16.06c0.01-41.72,0-83.44,0-125.16C379.32,321.42,379.32,320.99,379.32,320.54z"/>
			<path d="M379.32,320.54c0,0.45,0,0.88,0,1.31c0,41.72,0,83.44,0,125.16c0,8.01-4.15,13.67-11.7,16.06
				c-2.56,0.81-3.78,0.5-5.48-1.62c-2.82-3.53-5.57-7.11-8.35-10.68c-4.42-5.68-8.84-11.36-13.27-17.03
				c-0.56-0.72-1.16-1.41-1.84-2.24c-3.82,4.9-7.57,9.71-11.32,14.53c-3.74,4.79-7.48,9.58-11.21,14.37
				c-0.1-0.06-0.2-0.12-0.29-0.18c0.08-0.24,0.11-0.5,0.23-0.72c1.53-2.62,3.03-5.26,4.63-7.85c1.68-2.73,1.67-3.75-0.29-6.25
				c-8.32-10.65-16.64-21.3-24.96-31.95c-3.27-4.19-6.53-8.4-9.8-12.59c-0.34-0.44-0.73-0.84-1.18-1.37
				c-15.17,19.48-30.28,38.87-45.39,58.27c-0.12-0.07-0.25-0.14-0.37-0.21c0.15-0.34,0.25-0.71,0.45-1.02
				c5.97-9.37,11.95-18.73,17.94-28.09c1.21-1.89,2.45-3.75,3.65-5.63c1.01-1.59,0.93-2.44-0.23-3.91
				c-2.29-2.88-4.56-5.77-6.84-8.66c-0.12-0.15-0.25-0.28-0.46-0.5c-6.6,8.45-13.16,16.84-19.88,25.44c0-38.37,0-76.46,0-114.65
				C281.95,320.54,330.56,320.54,379.32,320.54z M348.28,373.7c0.01-5.51-4.36-9.86-9.9-9.86c-5.56,0-9.93,4.32-9.94,9.82
				c0,5.54,4.42,9.91,10.02,9.89C343.89,383.54,348.27,379.14,348.28,373.7z M363.29,437.35c0.52-0.49,0.98-0.91,1.49-1.4
				c-1.91-1.91-0.43-4.56-1.71-6.63c-0.22,1.35-0.31,2.7-0.19,4.03c0.11,1.25-0.16,2.05-1.8,2.01
				C361.9,436.11,362.57,436.71,363.29,437.35z"/>
			<path class="st2" d="M348.28,373.7c-0.01,5.43-4.39,9.83-9.82,9.85c-5.6,0.02-10.03-4.35-10.02-9.89c0-5.5,4.38-9.83,9.94-9.82
				C343.92,363.84,348.29,368.19,348.28,373.7z"/>
			<path class="st2" d="M363.29,437.35c-0.72-0.65-1.39-1.25-2.21-1.99c1.64,0.04,1.91-0.76,1.8-2.01
				c-0.11-1.33-0.03-2.68,0.19-4.03c1.29,2.07-0.2,4.72,1.71,6.63C364.27,436.44,363.81,436.87,363.29,437.35z"/>
		</g>
	</g>
</g>
<g id="Layer_2">
	<g>
		<g>
			<path class="st2" d="M223.92,312c54.72,0,109.44,0,164.16,0c0,55.68,0,111.36,0,167.04c-54.72,0-109.44,0-164.16,0
				C223.92,423.36,223.92,367.68,223.92,312z M379.32,320.54c-48.76,0-97.37,0-145.97,0c0,38.19,0,76.28,0,114.65
				c6.72-8.6,13.27-16.99,19.88-25.44c0.2,0.22,0.34,0.35,0.46,0.5c2.28,2.89,4.55,5.78,6.84,8.66c1.16,1.46,1.25,2.32,0.23,3.91
				c-1.2,1.89-2.45,3.75-3.65,5.63c-5.99,9.36-11.97,18.72-17.94,28.09c-0.2,0.31-0.3,0.68-0.45,1.02c0.12,0.07,0.25,0.14,0.37,0.21
				c15.11-19.4,30.22-38.8,45.39-58.27c0.46,0.52,0.84,0.93,1.18,1.37c3.27,4.19,6.53,8.4,9.8,12.59
				c8.32,10.65,16.64,21.3,24.96,31.95c1.96,2.5,1.97,3.53,0.29,6.25c-1.59,2.58-3.1,5.22-4.63,7.85c-0.12,0.21-0.16,0.48-0.23,0.72
				c0.1,0.06,0.2,0.12,0.29,0.18c3.74-4.79,7.48-9.58,11.21-14.37c3.75-4.81,7.51-9.63,11.32-14.53c0.68,0.83,1.28,1.52,1.84,2.24
				c4.43,5.68,8.84,11.36,13.27,17.03c2.78,3.56,5.53,7.15,8.35,10.68c1.69,2.12,2.92,2.43,5.48,1.62
				c7.55-2.39,11.7-8.05,11.7-16.06c0.01-41.72,0-83.44,0-125.16C379.32,321.42,379.32,320.99,379.32,320.54z"/>
			<path d="M379.32,320.54c0,0.45,0,0.88,0,1.31c0,41.72,0,83.44,0,125.16c0,8.01-4.15,13.67-11.7,16.06
				c-2.56,0.81-3.78,0.5-5.48-1.62c-2.82-3.53-5.57-7.11-8.35-10.68c-4.42-5.68-8.84-11.36-13.27-17.03
				c-0.56-0.72-1.16-1.41-1.84-2.24c-3.82,4.9-7.57,9.71-11.32,14.53c-3.74,4.79-7.48,9.58-11.21,14.37
				c-0.1-0.06-0.2-0.12-0.29-0.18c0.08-0.24,0.11-0.5,0.23-0.72c1.53-2.62,3.03-5.26,4.63-7.85c1.68-2.73,1.67-3.75-0.29-6.25
				c-8.32-10.65-16.64-21.3-24.96-31.95c-3.27-4.19-6.53-8.4-9.8-12.59c-0.34-0.44-0.73-0.84-1.18-1.37
				c-15.17,19.48-30.28,38.87-45.39,58.27c-0.12-0.07-0.25-0.14-0.37-0.21c0.15-0.34,0.25-0.71,0.45-1.02
				c5.97-9.37,11.95-18.73,17.94-28.09c1.21-1.89,2.45-3.75,3.65-5.63c1.01-1.59,0.93-2.44-0.23-3.91
				c-2.29-2.88-4.56-5.77-6.84-8.66c-0.12-0.15-0.25-0.28-0.46-0.5c-6.6,8.45-13.16,16.84-19.88,25.44c0-38.37,0-76.46,0-114.65
				C281.95,320.54,330.56,320.54,379.32,320.54z M348.28,373.7c0.01-5.51-4.36-9.86-9.9-9.86c-5.56,0-9.93,4.32-9.94,9.82
				c0,5.54,4.42,9.91,10.02,9.89C343.89,383.54,348.27,379.14,348.28,373.7z M363.29,437.35c0.52-0.49,0.98-0.91,1.49-1.4
				c-1.91-1.91-0.43-4.56-1.71-6.63c-0.22,1.35-0.31,2.7-0.19,4.03c0.11,1.25-0.16,2.05-1.8,2.01
				C361.9,436.11,362.57,436.71,363.29,437.35z"/>
			<path class="st2" d="M348.28,373.7c-0.01,5.43-4.39,9.83-9.82,9.85c-5.6,0.02-10.03-4.35-10.02-9.89c0-5.5,4.38-9.83,9.94-9.82
				C343.92,363.84,348.29,368.19,348.28,373.7z"/>
			<path class="st2" d="M363.29,437.35c-0.72-0.65-1.39-1.25-2.21-1.99c1.64,0.04,1.91-0.76,1.8-2.01
				c-0.11-1.33-0.03-2.68,0.19-4.03c1.29,2.07-0.2,4.72,1.71,6.63C364.27,436.44,363.81,436.87,363.29,437.35z"/>
		</g>
	</g>
	<path class="st3" d="M379.2,320.8"/>
	<rect x="364.79" y="440.64" width="14.54" height="22.74"/>
	<rect x="365.35" y="462.76" width="13.9" height="0.72"/>
</g>
</svg>
